<?xml version="1.0" encoding="UTF-8" standalone="no"?>
<svg xmlns:rdf="http://www.w3.org/1999/02/22-rdf-syntax-ns#" xmlns="http://www.w3.org/2000/svg" height="631pt" width="329pt" version="1.1" xmlns:cc="http://creativecommons.org/ns#" xmlns:dc="http://purl.org/dc/elements/1.1/" viewBox="0 0 329 631">
<path fill="#016200" d="m270.31 0h5.91c-4.78 1.42-9.17 3.86-13.9 5.42-23.09 9.86-41.9 28.71-52.45 51.42-3.51 7.21-5.95 14.86-8.57 22.4-1.99 5.73-6.58 10.86-12.51 12.54-5.33 0.64-9.61-4.7-10.06-9.64-0.62-5.38-0.98-10.8-0.93-16.22 0.69-1.67 1.39-3.34 2.18-4.96 1.86 1.05 3.7 4.51 5.77 1.98-1.11-3.8-2.31-8.29 0.18-11.79 4.5-6.58 8.88-13.53 14.87-18.89 1.13 0.65 2.07 1.58 3.14 2.33 3.91-4.96 6.66-11.09 12.33-14.36 6.97-4.02 13.6-9.68 21.82-10.83 2.74-0.5 2.77-4.45 5.47-5.01 8.66-2.94 18.07-1.49 26.75-4.39z"/>
<path fill="#002600" d="m276.22 0h3.83c-2.01 1.47-3.84 3.27-6.2 4.15-19.53 7.95-37.34 20.78-49.86 37.84-6.13 7.93-9.46 17.45-13.56 26.46-4.31 12.57-9.71 24.89-11.75 38.1-0.48 2.89-0.53 6.36 1.95 8.4 3.01 1.29 6.47 0.99 9.68 1.51 0.16 0.35 0.47 1.04 0.63 1.38-0.92 2.95-3.04 5.28-4.19 8.11-1.31-0.71-2.7-1.28-4.15-1.59-2.34 4.49 3.88 9.85 7.71 5.99 23.09-17.78 52.63-26.26 81.62-24.29 8.2 0.57 15.93 4.05 24.19 4.04 4 2.95 7.92 6.11 11.16 9.9-0.52 0.24-1.57 0.73-2.1 0.97-13.53-8.61-30.22-10.52-45.91-10.83-12.11 1.56-24.62 2.31-35.98 7.2-7.81 3.34-16.32 6.31-22.02 12.94-4.68 5.82-10.07 12.15-10.22 20.06 2.23 7.18 9.26 10.4 15.77 12.57-0.73 1.46-1.63 2.82-2.76 4.01-8.69-0.35-17.92-6.7-25.91-0.59-0.99 6.82 7.23 7.65 11.8 9.72 12.79 5.75 25.4 12.7 35.69 22.32 11.57 13.28 20.79 28.4 28.86 44.01 1.55 2.98 2.72 6.24 4.97 8.79 2.48 1.28 5.64 0.38 8.37 0.69 6.37 12.04 4.38 26.04 6.5 39.07-0.19 4.23 2.1 9.15 0.06 13.14-5.94-8.08-12.23-15.89-19.97-22.34-4.44-2.8-4.07-7.46-2.51-11.57-2.59 1.38-5.29 2.53-7.91 3.85-2.41-0.5-2.32-3.59-3.33-5.38 2.16-1.64 4.26-3.33 6.31-5.1 2.35-6.55 0.21-13.6-0.96-20.19 1.29 0.13 2.58 0.35 3.88 0.51-5.49-12.36-13.28-23.63-21.28-34.48-11.23-15.69-29.15-24.01-46.2-31.77-2.64-1.28-8.78-3.01-5.63 3.52-0.9 7.18 4.67 13.71 1.69 20.77 2.85 1.87 6.1 3.01 9.19 4.43 0.08 0.38 0.24 1.15 0.31 1.53-5.05-0.72-9.47-3.35-13.94-5.62-1.14 0.43-2.19 1.05-3.23 1.66 2.24-4.78 4.56-9.92 3.87-15.33-1.97-6.01-5.49-11.43-9.24-16.47-10.41 0.8-19.88 7.08-26.31 15.08-11.9 14.45-19.04 32.15-23.9 50.06-2.49 9.48-4.95 19.17-4.83 29.05 3.63 7.78 9.73 14.05 16.6 19.06-6.42 14.48-12.11 29.48-19.16 43.81-4.65-12.29-8.67-24.88-11.21-37.79-0.39-7.15-6.21-13.82-2.94-21.06 4.2-2.11 9.08-3.8 12.01-7.56 0.99-18.53 5.12-36.95 13.4-53.62 7.67-13.31 15.57-27.05 28.33-36.18 2.27 0.23 1.91-3.38-0.13-3.27-6.58-0.64-4.8-8.88-10.12-11-7.69-4.05-16.67-4.36-25.06-5.9-12.65-2.11-25.23 2.24-37.04 6.24-26.46 8.31-47.67 28.63-63.14 51.05-1.56 3.33-6.13 6.98-4.04 11.05 3.33 7.46 6.3 15.1 10.21 22.29-2.9 5.8-9.31 9.18-11.21 15.53-4.24 10.88-11.14 21.27-19.93 28.82-3.12-7.29-3.56-15.46-6.98-22.64v-19.19c4.03-7.01 0.45-16.21 4.76-23.17 2.64-1.68 5.64-2.65 8.61-3.51 3.76-0.7 8.52-0.51 10.7-4.29 16.92-29.03 44.3-53.54 77.59-61.3 10.6-2.27 21.27-4.89 32.2-4.59 8.55 0.24 16.73 3.55 25.32 3.34 2.61-0.18 3.97-2.61 5.84-4.06 1.9 0.61 3.82 1.13 5.71 1.75-0.4-2.99-3.13-4.82-4.87-7.02-3.44-3.41-5.18-8.02-8.03-11.87-2.52-2.49-6.35-3.5-8.2-6.7 3.13 0.17 7.97 0.54 8.84-3.42 2.77-10.47-5.27-19.02-10.81-26.79-9.85-12.35-20.48-24.73-34.53-32.44-10.52-6.48-22.08-12.1-34.67-12.6-13.48-1.05-28.95-0.99-40.48 7.19 0.57 0.28 1.73 0.85 2.3 1.13-2.74-0.74-10.52 1.81-7.24-2.44 6.91-3.69 13.43-8.52 21.35-9.79 9.8-1.95 19.97-1.94 29.86-0.76 17.4 3.98 33.53 12.67 47.42 23.74 13.38 12.91 24.68 28.07 33.29 44.56 2.33 4.31 5.36 9.22 10.69 10.01 2.3 0.99 8.05-0.23 7.11-3.74-1.9-9.26-6.67-17.53-10.53-26.04 1.01-9.14 1.03-18.95 5.57-27.19-0.05 5.42 0.31 10.84 0.93 16.22 0.45 4.94 4.73 10.28 10.06 9.64 5.93-1.68 10.52-6.81 12.51-12.54 2.62-7.54 5.06-15.19 8.57-22.4 10.55-22.71 29.36-41.56 52.45-51.42 4.73-1.56 9.12-4 13.9-5.42z"/>
<path fill="#157f00" d="m280.05 0h5.58c-4.89 4.34-9.14 9.37-13.93 13.82-4.06 3.79-3.93 11.03-9.21 13.33-1.97 6.9-8.17 11.46-12.66 16.77-2.13 2.93-5.76 3.69-8.57 5.7-4.61 9.77-9.97 19.3-16.55 27.89-4.56 2.21-4.52 7.81-6.15 11.92-2.92 6.36-4.2 13.34-7.46 19.54-1.25 2.31-1.95 4.99-0.79 7.49-3.21-0.52-6.67-0.22-9.68-1.51-2.48-2.04-2.43-5.51-1.95-8.4 2.04-13.21 7.44-25.53 11.75-38.1 4.1-9.01 7.43-18.53 13.56-26.46 12.52-17.06 30.33-29.89 49.86-37.84 2.36-0.88 4.19-2.68 6.2-4.15z"/>
<path fill="#157f00" d="m33.04 55.13c15.99-20.44 44.23-25.99 68.8-22.78 0.49 1.4 1.49 4.21 1.99 5.61 1.88-1.02 5.63-3.06 7.51-4.08 6.78 2.42 13.16 5.91 19.59 9.14 4.89 1.85 5.43 7.82 9.56 10.49 2.72 2.67 6.5 4.83 7.73 8.6-0.17 1.87-0.39 3.74-0.56 5.62 3.08-0.21 6.29-0.68 9.3 0.1 5.81 7.92 9.98 16.97 15.27 25.28 3.86 8.51 8.63 16.78 10.53 26.04 0.94 3.51-4.81 4.73-7.11 3.74-5.33-0.79-8.36-5.7-10.69-10.01-8.61-16.49-19.91-31.65-33.29-44.56-13.89-11.07-30.02-19.76-47.42-23.74-9.89-1.18-20.06-1.19-29.86 0.76-7.92 1.27-14.44 6.1-21.35 9.79z"/>
<path fill="#3ba000" d="m37.98 56.44c11.53-8.18 27-8.24 40.48-7.19 12.59 0.5 24.15 6.12 34.67 12.6 3.44 7.79 10.62 14.62 9.89 23.74-0.92 4.52-6.53 4.24-10.07 4.78-4.64-5.6-14.08-9.75-12.37-18.11-3.46 0.63-6.8 1.98-10.31 2.28-6.34-1.79-11.74-6.12-16.83-10.16-0.01-1.72 0.22-3.43 0.33-5.14-2.26 1.17-4.59 2.19-6.86 3.33-4.22-0.93-7.84-3.56-12.03-4.63-4.73-1.56-9.75-0.02-14.6-0.37-0.57-0.28-1.73-0.85-2.3-1.13z"/>
<path fill="#006000" d="m113.13 61.85c14.05 7.71 24.68 20.09 34.53 32.44 5.54 7.77 13.58 16.32 10.81 26.79-0.87 3.96-5.71 3.59-8.84 3.42-4.44-7.41-11.97-13.56-12.42-22.66-3.79-0.57-7.95-1.13-10.06-4.82 1.52-2.47 3.42-4.88 3.99-7.78-5.95 1.06-13.11 6.96-18.19 1.13 3.54-0.54 9.15-0.26 10.07-4.78 0.73-9.12-6.45-15.95-9.89-23.74z"/>
<path fill="#269100" d="m255.7 96.77c7.18 0.02 13.52-5.36 20.87-3.01 14.65 0.69 28.13 7.52 39.55 16.34-8.26 0.01-15.99-3.47-24.19-4.04-28.99-1.97-58.53 6.51-81.62 24.29-3.83 3.86-10.05-1.5-7.71-5.99 1.45 0.31 2.84 0.88 4.15 1.59 1.15-2.83 3.27-5.16 4.19-8.11 4.58-2.91 8.79-8.76 14.78-6.54 7.34-8.91 18.42-14.01 29.98-14.53z"/>
<path fill="#137d00" d="m243.29 117.34c11.36-4.89 23.87-5.64 35.98-7.2 15.69 0.31 32.38 2.22 45.91 10.83-8.07 2.06-16.62 1.26-24.63 3.66-4.26 0.82-9.18 3.75-12.72-0.18-4.94 8.13-15.3 10.38-24.1 11.5-3.65 7.5-12.67 9.49-18.24 15.27-1.54 1.29-4.14-2.29-5.19 0.22-3.19 5.19-8.29 8.51-13.48 11.47-6.51-2.17-13.54-5.39-15.77-12.57 0.15-7.91 5.54-14.24 10.22-20.06 5.7-6.63 14.21-9.6 22.02-12.94z"/>
<path fill="#137e00" d="m89.44 145.45c24.49-7.83 51.73-6.52 75.58 2.89-1.87 1.45-3.23 3.88-5.84 4.06-8.59 0.21-16.77-3.1-25.32-3.34-10.93-0.3-21.6 2.32-32.2 4.59-33.29 7.76-60.67 32.27-77.59 61.3-2.18 3.78-6.94 3.59-10.7 4.29-1.32-3.19-3.94-7.16-0.51-10.16 4.64-8.67 10.57-16.73 17.39-23.79 2.26-3.02 6.09-2.48 9.36-3.13 1.01-3.33 0.62-7.5 3.63-9.87 6.74-5.79 13.58-11.63 21.4-15.91 4.16-0.69 7.76 2.08 11.53 3.42-0.62-2.54-1.51-5.01-1.95-7.59 4.19-3.82 10.04-4.91 15.22-6.76z"/>
<path fill="#39a000" d="m95.09 159.01c11.81-4 24.39-8.35 37.04-6.24 8.39 1.54 17.37 1.85 25.06 5.9 0.94 1.83 3.7 3.71 2.29 5.91-2.64 5.84-12.5-1.73-14.83 4.06-0.98 4.32-5.84 4.58-9.41 5.79-5.33 1.53-11.64 4.07-16.35-0.23-2.7 1.9-2.88 6.24-6.15 7.64-9.14 4.86-19.02 8.35-27.58 14.29-5.75 4.17-11.71 8.05-18 11.35-5.52-6.01-5.12-14.79-1.13-21.42 5.37-13.02 18.68-18.81 29.06-27.05z"/>
<path fill="#006000" d="m31.95 210.06c15.47-22.42 36.68-42.74 63.14-51.05-10.38 8.24-23.69 14.03-29.06 27.05-3.99 6.63-4.39 15.41 1.13 21.42-1.71 5.54-6.56 9.2-10.12 13.53-2.99 3.06-5.22 6.96-8.8 9.42-1.98 0.1-3.97-0.04-5.95-0.04 0.74 2 1.31 4.11 1.19 6.27-1.13 2.68-3.51 4.55-5.36 6.74-3.91-7.19-6.88-14.83-10.21-22.29-2.09-4.07 2.48-7.72 4.04-11.05z"/>
<path fill="#006000" d="m157.19 158.67c5.32 2.12 3.54 10.36 10.12 11 2.04-0.11 2.4 3.5 0.13 3.27-12.49-1.99-23.89 6.78-31.73 15.61-4.33 2.61 0.69 7.62-2.64 10.29-3.61 3.2-2.67 8.69-5.84 12.21-4.58 6.56-7.68 14.31-7.25 22.46 2.71 1.25 3.54-3.03 5.38-4.21 1.98-2.9 6.16-4.49 6.22-8.47 0.58-4.88 5.01-7.87 7.53-11.71-8.28 16.67-12.41 35.09-13.4 53.62-2.93 3.76-7.81 5.45-12.01 7.56-3.07-10.7-3.79-24.12 3.86-33.13-1.01-0.85-2.08-1.63-3.05-2.53 0.79-9.59 5.64-18.16 9.35-26.84 1.27-5.68 6.09-9.98 6.11-15.98 2.56-5.59 7.08-10.21 11.85-14.01 4.63-3.66 10.64-4.6 15.86-7.1-0.03-0.38-0.1-1.15-0.13-1.53-4.36 1.14-8.57-0.47-12.9-0.54 2.33-5.79 12.19 1.78 14.83-4.06 1.41-2.2-1.35-4.08-2.29-5.91z"/>
<path fill="#005c00" d="m198.15 166.33c7.99-6.11 17.22 0.24 25.91 0.59 5.09 2.68 9.96 5.88 15.37 7.9 6.89 6.71 13.47 13.88 18.85 21.89 1.58 3.4 4.94 5.09 7.64 7.38 8.51 10.23 12.88 22.93 17.99 35.02 1.75 4.1 3.02 8.39 3.93 12.75-2.73-0.31-5.89 0.59-8.37-0.69-2.25-2.55-3.42-5.81-4.97-8.79-8.07-15.61-17.29-30.73-28.86-44.01-10.29-9.62-22.9-16.57-35.69-22.32-4.57-2.07-12.79-2.9-11.8-9.72z"/>
<path fill="#38a000" d="m135.71 188.55c7.84-8.83 19.24-17.6 31.73-15.61-12.76 9.13-20.66 22.87-28.33 36.18-2.52 3.84-6.95 6.83-7.53 11.71-0.06 3.98-4.24 5.57-6.22 8.47-1.84 1.18-2.67 5.46-5.38 4.21-0.43-8.15 2.67-15.9 7.25-22.46 3.17-3.52 2.23-9.01 5.84-12.21 3.33-2.67-1.69-7.68 2.64-10.29z"/>
<path fill="#056900" d="m159.14 187.17c6.43-8 15.9-14.28 26.31-15.08 3.75 5.04 7.27 10.46 9.24 16.47 0.69 5.41-1.63 10.55-3.87 15.33-1.31 2.71-2.71 5.45-3.33 8.41-0.51 3.32 2.7 7.23-0.29 9.78-1.43-3.68-1.73-9.68-7.6-6.56-1.41 10.97-7.69 20.31-11.51 30.49-1.04 2.13-1.96 4.89-4.66 5.27-5.19-0.15-3.72 5.21-4.76 8.48-0.39 4.87-7.99 5.94-7.84 10.62 1.96 5.33-2.15 10.14-3.82 14.96-6.87-5.01-12.97-11.28-16.6-19.06-0.12-9.88 2.34-19.57 4.83-29.05 4.86-17.91 12-35.61 23.9-50.06z"/>
<path fill="#137d00" d="m196.8 181.12c-3.15-6.53 2.99-4.8 5.63-3.52 17.05 7.76 34.97 16.08 46.2 31.77 8 10.85 15.79 22.12 21.28 34.48-1.3-0.16-2.59-0.38-3.88-0.51 1.17 6.59 3.31 13.64 0.96 20.19-2.05 1.77-4.15 3.46-6.31 5.1-3.79-5.18-6.48-11.02-9.81-16.48-6.94-11.71-16.35-21.64-25.27-31.82-2.67-2.54-0.36-6.32 0.31-9.27-2.36 0.68-4.19 2.33-5.98 3.92-5.18-1.57-5.43-7.6-7.04-11.85-2.12 0.28-3.61 1.94-5.21 3.19-3.09-1.42-6.34-2.56-9.19-4.43 2.98-7.06-2.59-13.59-1.69-20.77m25.72 15.17c-4.9 4.25 3.74 13.36 9.15 10.45 1.69-4.84-2.98-13.88-9.15-10.45z"/>
<path fill="#96cc00" d="m222.52 196.29c6.17-3.43 10.84 5.61 9.15 10.45-5.41 2.91-14.05-6.2-9.15-10.45z"/>
<path fill="#2d0800" d="m190.82 203.89c1.04-0.61 2.09-1.23 3.23-1.66 4.47 2.27 8.89 4.9 13.94 5.62 2.66 5.2 1.12 11.3 3.5 16.58 4.9 12.47 9.22 25.17 14.2 37.61 0.99 3.51-0.77 7.21 0.41 10.73 3.62 13.31 8.01 26.46 10.83 39.97 0.55 20.39 8.68 39.83 8.56 60.24 0.84 14.8 1.97 29.6 3.29 44.37 0.51 5.19-1.44 10.23-0.97 15.43 1.73 10.85 1.52 21.89 2.9 32.79 1.46 10.63-2.34 21.29-0.1 31.88 0.94 11.34 2.39 22.72 1.98 34.12-1.42 0.2-2.85 0.26-4.27 0.44 1 11.74 1.15 23.55 0.48 35.32-3.32 10.81 0.59 21.76 0.24 32.73-0.29 10.28 1.19 20.85-1.32 30.94h-6.97c-0.23-2.1-0.32-4.21-0.36-6.31-3.07 0.61-3.62 3.74-4.28 6.31h-5.35c-3.24-1.15-4.61-4.55-6.64-6.85-2.15 0.82-4.04 2.82-6.55 2.1 5.7-16.02 3.6-33.43 5.34-50.08-4.89-2.19-10.37-2.52-15.66-2.86 0.24-1.75 0.6-3.46 0.98-5.16 5.46 0.52 10.88-0.79 16.32 0.3 1-11.2 2.06-22.43 1.55-33.68-4.25-1.32-8.57-2.39-12.93-3.27 0.03-1.08 0.04-2.16 0.05-3.24 4.04-0.29 8.43-2.46 12.34-0.33 3.22-12.93 2.53-26.38 2.08-39.58-4.25-2.09-9.02-2.56-13.59-3.61-0.35-1.31-0.74-2.61-1.14-3.89 2.88 0.85 5.46-1.92 8.28-0.92 1.7 1.08 3.65-0.6 5.36 0.59-0.4-16.29 2.24-32.82-1.04-48.92-3.77-1.09-7.56-2.14-11.45-2.58-0.2-1.73-0.49-3.45-0.75-5.16 3.53 0.1 8.37 1.42 9.65-2.96 0.69 1.39 0.75 4.41 2.84 2.49-0.07-16.18 1.27-32.6-0.36-48.68-3.93 1.56-7.65-5.5-10.74-2.06-0.18-0.58-0.55-1.74-0.73-2.32 3.95-0.45 8.09-0.39 11.88-1.77 1.08-14.42-0.83-28.86-2.49-43.13-3.06-0.23-6.08-0.19-9.13-0.23-0.37-1.35-0.76-2.7-1.14-4.04 2.75-0.72 5.89-1.19 7.84-3.48-1.11-9.35-3.26-18.54-4.74-27.83-1.05-4.54-1.12-9.71-4.1-13.55-2.26-0.02-4.51 0.01-6.76 0.08-0.76-1.44-1.52-2.86-2.29-4.28 2.84-1.21 8.47-1.87 5.49-6.76-2.51-12.24-5.81-24.42-9.96-36.22-2.19-2.35-5.76-0.43-8.47-0.13-1.23-2.19-2.21-4.51-2.9-6.91 2.99-2.55-0.22-6.46 0.29-9.78 0.62-2.96 2.02-5.7 3.33-8.41z"/>
<path fill="#805600" d="m190.1 228.99c2.71-0.3 6.28-2.22 8.47 0.13 4.15 11.8 7.45 23.98 9.96 36.22 2.98 4.89-2.65 5.55-5.49 6.76-1.64 0.21-3.28 0.48-4.94 0.48-0.59-14.87-5.04-29.12-8-43.59z"/>
<path fill="#805600" d="m205.33 276.38c2.25-0.07 4.5-0.1 6.76-0.08 2.98 3.84 3.05 9.01 4.1 13.55 1.48 9.29 3.63 18.48 4.74 27.83-1.95 2.29-5.09 2.76-7.84 3.48-1.33 0.21-2.65 0.43-3.99 0.55 1.31-15.27-3.25-30.15-3.77-45.33z"/>
<path fill="#815700" d="m214.23 325.2c3.05 0.04 6.07 0 9.13 0.23 1.66 14.27 3.57 28.71 2.49 43.13-3.79 1.38-7.93 1.32-11.88 1.77-0.19-0.36-0.57-1.09-0.76-1.45 4.21-14.14 0.91-29.17 1.02-43.68z"/>
<g fill="#7d5300">
<path d="m214.7 372.65c3.09-3.44 6.81 3.62 10.74 2.06 1.63 16.08 0.29 32.5 0.36 48.68-2.09 1.92-2.15-1.1-2.84-2.49-1.28 4.38-6.12 3.06-9.65 2.96-1.36-0.32-2.71-0.63-4.04-1.04 3.43-16.51 4.6-33.35 5.43-50.17z"/>
<path d="m214.06 429.02c3.89 0.44 7.68 1.49 11.45 2.58 3.28 16.1 0.64 32.63 1.04 48.92-1.71-1.19-3.66 0.49-5.36-0.59-2.82-1-5.4 1.77-8.28 0.92-1.94-0.65-3.99-1.02-5.85-1.86 6.76-15.81 5.24-33.28 7-49.97z"/>
<path d="m214.05 484.74c4.57 1.05 9.34 1.52 13.59 3.61 0.45 13.2 1.14 26.65-2.08 39.58-3.91-2.13-8.3 0.04-12.34 0.33-2.22-0.17-4.43-0.45-6.62-0.85 0.94-5.3 3.69-10.11 4.4-15.47 1.12-9.05 2.19-18.12 3.05-27.2z"/>
<path d="m213.17 531.5c4.36 0.88 8.68 1.95 12.93 3.27 0.51 11.25-0.55 22.48-1.55 33.68-5.44-1.09-10.86 0.22-16.32-0.3-1.37-0.27-2.73-0.53-4.08-0.86 5.76-11.1 7.25-23.59 9.02-35.79z"/>
<path d="m207.25 573.31c5.29 0.34 10.77 0.67 15.66 2.86-1.74 16.65 0.36 34.06-5.34 50.08-6.84-1.01-13.61-2.54-20.35-4.01 7.02-15.35 8.92-32.28 10.03-48.93z"/>
</g>
<path opacity=".74" fill="#075000" d="m269.78 0h11.31c-1.27 0.81-2.57 1.55-3.92 2.2-3.03-0.02-6.04-0.13-8.99 0.57l-0.55-0.75c0.54-0.5 1.61-1.51 2.15-2.02z"/>
<path fill="#157f00" d="m281.09 0h4.61c-7.99 7.89-17.3 15.07-20.82 26.21-3.53-0.99-2.09 3.09-3.83 4.83-6 6.66-11.01 15.6-20.08 18.37-3.17 10.3-10.3 18.86-15.96 27.93-3.32-0.58-7.61-1.38-8.53-5.23-1-8.17 1.99-16.12 3.47-24.09 7.23-12.63 18.42-22.44 29.81-31.25 8.13-6.61 18.56-9.27 27.41-14.57 1.35-0.65 2.65-1.39 3.92-2.2z"/>
<path fill="#157f00" d="m242.02 4.94c8.16-3.1 17.03-2.76 25.61-2.92l0.55 0.75c-3.62 1.89-7.46 3.3-11.14 5.04-0.34-4.22-5.68-2.1-8.12-2.13-4.31-0.17-5.79 4.69-8.79 6.86-6 2.59-13.35 2.51-18.4 7.1-4.14 3.33-8.61 7.98-6.34 13.8 3.16 1.53 6.75 1.44 9.61-0.5-2.31 3.03-4.54 6.14-6.99 9.07-3.23 1.97-6.63 4.15-10.63 3.87-3.72-2.57-3.46-7.99-2.39-11.91 2.69-6.17 7.18-11.6 13.07-14.95 6.86-3.65 13.33-9.54 21.48-9.76 0.88-1.4 1.3-3.11 2.48-4.32z"/>
<path fill="#000100" d="m268.18 2.77c2.95-0.7 5.96-0.59 8.99-0.57-8.85 5.3-19.28 7.96-27.41 14.57-11.39 8.81-22.58 18.62-29.81 31.25-7.44 12.03-12.01 25.51-16.16 38.95-0.37 1.01-0.73 2.02-1.08 3.04-2.07 5.85-3.71 11.86-4.94 17.95-0.94 7.84-3.59 15.31-5.83 22.85-0.97 1.5-1.93 3.02-3 4.46-1.23-2.73-2.48-5.66-1.51-8.65 3.19-13.58 6.35-27.21 10.7-40.48 2.55-4.45 4.2-9.32 5.84-14.16 3.51-10.49 8.73-20.3 14.04-29.97 2.45-2.93 4.68-6.04 6.99-9.07 8.68-10.67 19.92-18.8 32.04-25.13 3.68-1.74 7.52-3.15 11.14-5.04z"/>
<path fill="#399f00" d="m248.92 5.68c2.44 0.03 7.78-2.09 8.12 2.13-12.12 6.33-23.36 14.46-32.04 25.13-2.86 1.94-6.45 2.03-9.61 0.5-2.27-5.82 2.2-10.47 6.34-13.8 5.05-4.59 12.4-4.51 18.4-7.1 3-2.17 4.48-7.03 8.79-6.86z"/>
<path fill="#157f00" d="m71.9 32.83c10-1.33 20.16-1.11 30.22-0.59 0.42 1.45 1.26 4.36 1.69 5.81 1.87-1.05 5.61-3.14 7.48-4.19 3.65 0.88 6.87 3.01 10.3 4.52 6.13 3.18 14.46 5.18 15.78 13.12 4.43 2.61 8.57 6.1 11.09 10.64-0.28 1.85-1.27 3.65-0.84 5.55 3.27 0.4 7.09-1.5 9.96 0.62 5.1 8.11 9.68 16.54 14.54 24.8 1.01 2.29 2.09 4.55 3.2 6.8 0.32 1.53 0.6 3.08 0.79 4.64-9.25-3.06-16.53-10.05-25.03-14.6-9.23-10.06-16.94-22.11-29.24-28.8-15.63-10.28-33.75-18.25-52.87-17.33-10.88-0.78-21.61 2.68-30.8 8.32-1.89 1.11-3.43 2.76-4.15 4.86 2.66-0.71 5.15-1.9 7.72-2.87 9.27 1.52 18.48 3.7 27.35 7.08-0.37 0.41-1.11 1.23-1.48 1.65-5.76-1.49-10.82-5.32-16.9-5.75-6.04-0.04-12.05 0.97-18.09 0.54-0.17-0.38-0.52-1.13-0.69-1.51 9.42-12.69 24.77-20.06 39.97-23.31z"/>
<path fill="#006000" d="m185.58 51.74c4.53-6.95 9.3-13.92 15.31-19.7 1.15 1.43 2.1 3.63 4.1 1.93-1.07 3.92-1.33 9.34 2.39 11.91 4 0.28 7.4-1.9 10.63-3.87-5.31 9.67-10.53 19.48-14.04 29.97-1.64 4.84-3.29 9.71-5.84 14.16-3.71 2.23-7.27 8.1-12.27 6.35-8.79-4.3-8.96-15.3-9.13-23.65 1.06-2.67 2.06-5.38 3.19-8.03 1.92 1.11 3.75 4.77 5.95 2.19-1.59-3.5-2.43-7.8-0.29-11.26m5.82 14.35c-4.95 2.04-4.84 11.75 1.36 10.94 2.54-2.78 3.69-11.16-1.36-10.94z"/>
<path fill="#000100" d="m38.17 52.14c9.19-5.64 19.92-9.1 30.8-8.32 19.12-0.92 37.24 7.05 52.87 17.33 12.3 6.69 20.01 18.74 29.24 28.8 6.45 10.63 13.14 21.1 19 32.08 4.93 9.46 9.06 19.32 12.81 29.29 0.57 2.58 3 8.18-1.2 6.03-5.78-16.18-13.54-31.7-22.64-46.27-8.09-13.11-17.21-26.08-29.14-36.01-6.14-7.46-14.49-12.64-23.01-16.99-6.86-3.79-14.25-6.6-21.81-8.63-14.36-0.63-30.12-2.21-43.35 4.68-2.57 0.97-5.06 2.16-7.72 2.87 0.72-2.1 2.26-3.75 4.15-4.86z"/>
<path fill="#006000" d="m203.79 86.97c4.15-13.44 8.72-26.92 16.16-38.95-1.48 7.97-4.47 15.92-3.47 24.09 0.92 3.85 5.21 4.65 8.53 5.23-0.59 1.99-2.52 2.44-4.23 3.11-0.34 2.57-0.5 5.22-1.7 7.59-3.22 6.79-4.53 14.31-7.95 21.02-1.34 2.6-1.91 5.48-2.2 8.37-2.91-0.79-6.03-1-8.7-2.43-1.89-1.82-2.15-4.59-2.46-7.04 1.23-6.09 2.87-12.1 4.94-17.95 0.13 1.42 0.29 2.84 0.61 4.23 6.33 4.45 9.55-5.66 6.95-9.3-2.31-2.37-4.54 0.73-6.48 2.03z"/>
<path fill="#3ba000" d="m41.74 54.13c13.23-6.89 28.99-5.31 43.35-4.68 7.56 2.03 14.95 4.84 21.81 8.63 5.88 6.81 12.16 13.74 14.95 22.48 2.1 4.81-3.3 10.55-8.13 7.97-4.38-2.85-7.32-7.36-11.09-10.89-0.52 0.06-1.56 0.18-2.08 0.24-0.7-1.85 0.05-3.86 0.13-5.76-4.35 0.77-8.97 3.97-13.27 1.49-4.92-2.69-9.73-5.66-14.16-9.1 0.1-1.79 0.46-3.54 0.68-5.32-1.68 0.5-3.27 1.24-4.84 2.02-8.87-3.38-18.08-5.56-27.35-7.08z"/>
<path fill="#157f00" d="m106.9 58.08c8.52 4.35 16.87 9.53 23.01 16.99 2.34 4.86 6.15 8.78 8.81 13.42 1.52 5.03-4.95 7.17-8.75 7.91-0.35-0.4-1.04-1.21-1.38-1.62 1.49-1.96 5.03-3.44 3.99-6.39-5.78-0.12-10.25 6.64-16.68 4.33-5.73-4.21-10.44-9.72-15.35-14.84 0.52-0.06 1.56-0.18 2.08-0.24 3.77 3.53 6.71 8.04 11.09 10.89 4.83 2.58 10.23-3.16 8.13-7.97-2.79-8.74-9.07-15.67-14.95-22.48z"/>
<path fill="#449c00" d="m191.4 66.09c5.05-0.22 3.9 8.16 1.36 10.94-6.2 0.81-6.31-8.9-1.36-10.94z"/>
<path fill="#001800" d="m172.12 93.11c2-7.93 0.1-17.24 4.61-24.27 0.17 8.35 0.34 19.35 9.13 23.65 5 1.75 8.56-4.12 12.27-6.35-4.35 13.27-7.51 26.9-10.7 40.48-0.97 2.99 0.28 5.92 1.51 8.65-0.71 1.71-2.68 1.63-4.23 1.81-1.53-8.87 1.6-19.02-3.97-26.86-1.55-3.57-3.33-7.03-5.42-10.31-1.11-2.25-2.19-4.51-3.2-6.8z"/>
<path fill="#006000" d="m129.91 75.07c11.93 9.93 21.05 22.9 29.14 36.01 0.18 3.51 1.25 7.28-0.09 10.64-2.59 2.17-5.98 3.51-9.34 2.75-4.14-7.63-12.77-13.49-12.24-22.83-3.48 0.03-7.09-0.64-9.37-3.54-1.72-0.9-0.43-2.46 0.58-3.32 0.34 0.41 1.03 1.22 1.38 1.62 3.8-0.74 10.27-2.88 8.75-7.91-2.66-4.64-6.47-8.56-8.81-13.42z"/>
<path fill="#4da300" d="m203.79 86.97c1.94-1.3 4.17-4.4 6.48-2.03 2.6 3.64-0.62 13.75-6.95 9.3-0.32-1.39-0.48-2.81-0.61-4.23 0.35-1.02 0.71-2.03 1.08-3.04z"/>
<path fill="#005f00" d="m151.08 89.95c8.5 4.55 15.78 11.54 25.03 14.6-0.19-1.56-0.47-3.11-0.79-4.64 2.09 3.28 3.87 6.74 5.42 10.31 0.69 3.89 2.05 7.7 2.13 11.68-4.18 1.01-8.64 1.51-12.79 0.13-5.86-10.98-12.55-21.45-19-32.08z"/>
<path fill="#006200" d="m267.25 93.07c10.38 0.85 21.21 1.22 30.71 5.99 7.89 4.04 16.18 8.01 22.17 14.74-6.18-1.56-11.67-5.2-18.1-5.94-10.78-1.08-21.67-2.04-32.51-1.21 3.8-0.58 7.58-1.34 11.4-1.94 5.51-0.48 14.61 3.14 17.38-3.9-2.03-2.04-5.21-2.33-7.86-3.14-7.92-2.19-16.23-4.27-24.47-2.74 0.32-0.47 0.96-1.4 1.28-1.86z"/>
<path fill="#369f00" d="m265.97 94.93c8.24-1.53 16.55 0.55 24.47 2.74 0.24 1.67 0.48 3.35 0.53 5.05-3.28 1.02-6.72 1.28-10.05 1.99-3.82 0.6-7.6 1.36-11.4 1.94-9.57-0.21-18.9 2.44-27.47 6.51-3.28-1.61-8.26-5.01-5.13-8.99 5-4.16 11.82-5.65 18.21-5.77 2.41-0.33 6.36 0.39 7.76-2.41 1.02-0.36 2.05-0.72 3.08-1.06z"/>
<path fill="#127e00" d="m228.9 108.14c7.87-9.8 22.29-11.18 33.99-12.15-1.4 2.8-5.35 2.08-7.76 2.41-6.39 0.12-13.21 1.61-18.21 5.77-3.13 3.98 1.85 7.38 5.13 8.99-3.25 1.56-6.57 2.94-9.96 4.18-2.98-2.06-2.92-5.96-3.19-9.2z"/>
<path fill="#127e00" d="m290.44 97.67c2.65 0.81 5.83 1.1 7.86 3.14-2.77 7.04-11.87 3.42-17.38 3.9 3.33-0.71 6.77-0.97 10.05-1.99-0.05-1.7-0.29-3.38-0.53-5.05z"/>
<path fill="#000100" d="m269.52 106.65c10.84-0.83 21.73 0.13 32.51 1.21 6.43 0.74 11.92 4.38 18.1 5.94 2.05 1.73 7.24 4.15 6.34 6.46-10.4-6.32-22.7-7.79-34.5-9.62-10.81-1.89-21.59 0.73-32.27 2.11-8.43 1.19-16.6 3.93-24.09 7.96-5.6 2.34-10.98 5.36-15.53 9.39-13.13 8.12-22.88 20.22-31.61 32.66-3.79 1.29-1.85-3.26-0.79-5.01 5.8-9.47 12.74-18.59 21.45-25.57 7.28-5.51 14.67-10.94 22.96-14.84 3.39-1.24 6.71-2.62 9.96-4.18 8.57-4.07 17.9-6.72 27.47-6.51z"/>
<path fill="#001900" d="m191.94 130.81c2.24-7.54 4.89-15.01 5.83-22.85 0.31 2.45 0.57 5.22 2.46 7.04 2.67 1.43 5.79 1.64 8.7 2.43l-0.04 0.75c-0.48 1.78-0.51 4.12-2.2 5.23-1.86 0.29-4.06-0.47-5.59 0.93-2.86 2.43-5.87 4.67-9.16 6.47z"/>
<path fill="#006000" d="m223.81 111.12c2.36 1.83 3.67-1.56 5.09-2.98 0.27 3.24 0.21 7.14 3.19 9.2-8.29 3.9-15.68 9.33-22.96 14.84-4.92 1.92-8.45-3.41-8.03-7.84 1.53-1.4 3.73-0.64 5.59-0.93 1.69-1.11 1.72-3.45 2.2-5.23 5.8 1.73 8.64-9.82 14.92-7.06z"/>
<path fill="#002c00" d="m180.74 110.22c5.57 7.84 2.44 17.99 3.97 26.86 1.55-0.18 3.52-0.1 4.23-1.81 1.07-1.44 2.03-2.96 3-4.46 3.29-1.8 6.3-4.04 9.16-6.47-0.42 4.43 3.11 9.76 8.03 7.84-8.71 6.98-15.65 16.1-21.45 25.57-1.06 1.75-3 6.3 0.79 5.01 8.73-12.44 18.48-24.54 31.61-32.66-2.21 4.08-4.97 7.82-7.44 11.74-3.75 6.08-0.85 15.19 5.81 17.83 2.73 1.32 5.56 2.43 8.46 3.29-1.23 1.31-2.41 2.67-3.57 4.05-8.01 0.95-16.36-5.49-23.85-0.72-0.36 1.88-0.25 3.81-0.27 5.72-5.61-2.91-11.84-3.84-17.94-4.98-5.77-7.08-14.49-10.45-22.61-14.01 2.28-1.6 4.68-3.08 7.32-4.03 2.16 1.22 4.22 2.91 6.82 2.99-0.21-3.28-3.77-4.87-5.55-7.26-4.86-3.84-6.42-10.13-10.33-14.67-2.76-1.42-5.81-2.64-7.31-5.58 3.36 0.76 6.75-0.58 9.34-2.75 1.34-3.36 0.27-7.13 0.09-10.64 9.1 14.57 16.86 30.09 22.64 46.27 4.2 2.15 1.77-3.45 1.2-6.03-3.75-9.97-7.88-19.83-12.81-29.29 4.15 1.38 8.61 0.88 12.79-0.13-0.08-3.98-1.44-7.79-2.13-11.68z"/>
<path fill="#147d00" d="m259.7 112.75c10.68-1.38 21.46-4 32.27-2.11 6.19 2.26 6.57 11.42 2.13 15.65-2.54 1.45-4.51-0.33-6.28-2.02-1.45 2.03-2.49 4.59-4.88 5.7-6.13 2.88-12.43 6.15-19.41 5.71-1.84 6.87-9.75 8.19-14.49 12.55-6.46-0.93-7.65-9.57-13.95-10.16 1.98-1.86 5.2-3.8 4.67-6.94-1.08-2.37-4.19-1.62-6.34-2.15 0.79-2.74 1.46-5.51 2.19-8.27 7.49-4.03 15.66-6.77 24.09-7.96z"/>
<path fill="#006100" d="m291.97 110.64c11.8 1.83 24.1 3.3 34.5 9.62-3.05 1.83-6.73 1.97-10.18 2.05-7.55 0.26-14.97 1.86-22.19 3.98 4.44-4.23 4.06-13.39-2.13-15.65z"/>
<path fill="#006000" d="m220.08 130.1c4.55-4.03 9.93-7.05 15.53-9.39-0.73 2.76-1.4 5.53-2.19 8.27-3.17 2.55-6.92 5.78-4.94 10.51 2.32 0.91 4.53-0.55 6.61-1.42 6.3 0.59 7.49 9.23 13.95 10.16-1.34 1.21-2.29 3.19-4.1 3.69-2.27-0.98-3.61-3.95-6.46-3.64-0.14 2.36 1.07 5.29-0.93 7.15-3.2 2.96-7.03 5.11-10.64 7.53-2.9-0.86-5.73-1.97-8.46-3.29-6.66-2.64-9.56-11.75-5.81-17.83 2.47-3.92 5.23-7.66 7.44-11.74z"/>
<path fill="#4ca200" d="m233.42 128.98c2.15 0.53 5.26-0.22 6.34 2.15 0.53 3.14-2.69 5.08-4.67 6.94-2.08 0.87-4.29 2.33-6.61 1.42-1.98-4.73 1.77-7.96 4.94-10.51z"/>
<path fill="#147f00" d="m80.54 148.5c12.62-4.88 26.02-7.76 39.53-8.33 15.51 0.87 31.75 1.83 45.92 8.82-2.64 0.95-5.04 2.43-7.32 4.03-13.29-2.65-26.84-3.86-40.39-2.99-13.22 2.34-26.49 5.59-38.5 11.78-16.25 7.26-29.73 19.47-41.32 32.76-4.3-0.44-8.61-2.66-10.78-6.51 2.81-4.3 6.99-6.43 12.06-5.66 0.72-3.51 0.27-7.8 3.53-10.15 6.77-5.73 13.57-11.58 21.34-15.92 4.56-1.6 7.45 2.85 11.54 3.44-0.36-2.61-1.47-5.02-2.02-7.57 1.76-1.79 4.15-2.73 6.41-3.7z"/>
<path fill="#000100" d="m79.78 161.81c12.01-6.19 25.28-9.44 38.5-11.78 13.55-0.87 27.1 0.34 40.39 2.99 8.12 3.56 16.84 6.93 22.61 14.01 6.1 1.14 12.33 2.07 17.94 4.98 16.55 6.58 33.19 14.11 46.33 26.45 13.92 15.96 23.99 34.78 33.8 53.43 3.56 7.02 6.31 14.39 9.09 21.74 2.13 5.35 2.72 11.35 5.73 16.35 1.6 4.34 1.08 9.03 1.25 13.56-1.84 0.63-2.18-1.03-2.54-2.39-6.15-18.36-13.09-36.48-20.83-54.26-3.77-8.75-8.9-16.81-14.1-24.75-3.95-6.84-9.3-12.72-14.27-18.81-7.55-8.98-18.36-14.28-28.48-19.79-5.12-3.06-10.63-5.38-16.11-7.7-3.96-1.69-8.01-3.44-12.34-3.88-8.41-0.63-16.12 4.13-22.02 9.64-5.41 5.09-10.26 10.9-13.75 17.48-12.27 19.13-17.88 41.64-21.32 63.87-0.8 9.58-0.72 19.23-1.99 28.78-1.49 11.17 2.4 22.07 2.19 33.26-0.66 1.5-1.35 3-2.14 4.45-0.79-2.08-1.26-4.26-1.79-6.41 0.91-7.9-2.54-15.41-1.98-23.31 0.08-12.1-0.92-24.35 1.84-36.24 0.6-18.81 5.49-37.3 13.3-54.36 7.61-13.37 15.83-26.72 28.17-36.28 0.5-0.24 1.52-0.71 2.03-0.95 2.39-1.07 4.88-2.11 6.84-3.91-4.49-5.1-11.86-6.43-17.87-9.2-3.36-1.46-6.65-3.13-10.18-4.16-10.49-0.99-21.03-1.69-31.57-1.92l-0.36 2.6c-4.75 0.06-9.68-0.34-14.09 1.77-2.32 0.63-4.67 1.14-6.97 1.85-29.47 9.46-52.8 32.89-68.2 59.09-10.46 20.88-20.04 43.54-17.87 67.41-0.28 1.26-0.44 2.73-2.1 2.64-0.44-1.61-0.78-3.24-1.14-4.86-1.3-22.45 5.5-44.66 16-64.32 5.16-8.36 10.18-16.89 16.68-24.31 11.59-13.29 25.07-25.5 41.32-32.76z"/>
<path fill="#3ba200" d="m116.51 152.7c10.54 0.23 21.08 0.93 31.57 1.92-4.2 2.28-3.98 7.5-5.94 11.3-1.53 3.44-5.3 3.81-8.32 5.01-4.49 1.19-9.11 3.67-13.86 2.31-0.14-0.37-0.42-1.1-0.56-1.47-0.78-2.36-2.11-5.89-5.26-4.59-1.03 3.42-0.19 7.56-2.4 10.46-9.26 5.47-17.54 14.66-29.22 13.99-1.52 3.25-3.46 7.2-7.62 7.29-1.31-3.27-1.04-7.11 0.57-10.24 2.56-7.73 6.46-15.18 12.09-21.14 4.56-3.84 9.84-6.74 14.5-10.47 4.41-2.11 9.34-1.71 14.09-1.77l0.36-2.6z"/>
<path fill="#288e00" d="m142.14 165.92c1.96-3.8 1.74-9.02 5.94-11.3 3.53 1.03 6.82 2.7 10.18 4.16 0.66 1.08 1.31 2.17 1.87 3.31-0.37 2.27-1.38 4.67-3.78 5.39-3.44 1.65-8.46-3.81-10.31 0.55-1.13 1.55-2.03 3.57-4.02 4.16-5.91 1.81-11.73 4.13-17.92 4.78-2.06 0.28-3.15-1.91-4.5-3.05l0.36-0.68c4.75 1.36 9.37-1.12 13.86-2.31 3.02-1.2 6.79-1.57 8.32-5.01z"/>
<path fill="#288e00" d="m95.09 158.92c2.3-0.71 4.65-1.22 6.97-1.85-4.66 3.73-9.94 6.63-14.5 10.47-5.63 5.96-9.53 13.41-12.09 21.14-1.61 3.13-1.88 6.97-0.57 10.24 4.16-0.09 6.1-4.04 7.62-7.29 11.68 0.67 19.96-8.52 29.22-13.99 2.21-2.9 1.37-7.04 2.4-10.46 3.15-1.3 4.48 2.23 5.26 4.59-1.06-0.61-3.07-2.92-3.89-0.88 0.06 4.79-1.43 9.46-5.36 12.39-10.73 4.78-21.55 9.72-30.88 16.96-3.82 2.77-8.06 4.85-12.11 7.22-7.01-5.89-4.36-16.69-0.22-23.56 5.9-11.77 18.14-17.38 28.15-24.98z"/>
<path fill="#006000" d="m26.89 218.01c15.4-26.2 38.73-49.63 68.2-59.09-10.01 7.6-22.25 13.21-28.15 24.98-4.14 6.87-6.79 17.67 0.22 23.56-1.32 5.47-6.32 8.82-9.7 12.98-3.21 3.19-5.49 7.33-9.14 10.06-2.04 0.3-4.09-0.16-6.13-0.24 0.21 2.19 1.75 4.15 1.46 6.38-1.15 2.18-2.97 3.89-4.62 5.7-6.53-6.46-7.25-16.73-12.14-24.33z"/>
<path fill="#002d00" d="m158.26 158.78c6.01 2.77 13.38 4.1 17.87 9.2-1.96 1.8-4.45 2.84-6.84 3.91-4.47-1.74-7.69-5.26-9.16-9.8-0.56-1.14-1.21-2.23-1.87-3.31z"/>
<path fill="#006000" d="m160.13 162.09c1.47 4.54 4.69 8.06 9.16 9.8-0.51 0.24-1.53 0.71-2.03 0.95-13.09-1.78-25.06 7.72-32.85 17.38-2.82 2.53 2.65 6.78-1.35 8.64-3.5 1.8-1.97 6.27-4.02 9.09-4.61 7.73-10.53 15.75-8.96 25.4 0.38 0.16 1.13 0.49 1.5 0.65 2.47-2.99 4.3-6.69 7.8-8.63 2.88-1.28 1.47-4.91 2.79-7.2 1.88-3.31 4.67-6 6.92-9.05-7.81 17.06-12.7 35.55-13.3 54.36-3.97 2.31-8.22 4.15-11.98 6.81-1.52-1.96-2.12-4.23-1.81-6.8 0.17-6.65-1.81-14.04 2.09-19.94 0.06-2.77 1.7-4.71 3.77-6.34-1.18-0.84-2.42-1.61-3.57-2.49 1.07-12.39 9.36-22.28 12.06-34.16 0.63-1.84 3.53-2.34 3.12-4.58-0.46-7.12 6.03-12.28 10.69-16.81 4.82-4.74 11.72-5.69 17.59-8.51-0.02-0.4-0.04-1.21-0.06-1.61-3.91 0.83-8.11 1.15-11.65-1.02 1.85-4.36 6.87 1.1 10.31-0.55 2.4-0.72 3.41-3.12 3.78-5.39z"/>
<path fill="#005c00" d="m199.49 166.29c7.49-4.77 15.84 1.67 23.85 0.72 1.28 0.47 2.56 0.96 3.78 1.59-2.5 4.26-2.67 10.48 1.58 13.73 6.92 4.94 14.33 9.2 21.59 13.63 2.26 2.19 4.86 0.26 6.91-0.94 0.99 1.65 1.93 3.33 2.82 5.05 2.16 1.46 4.96 2.16 6.36 4.56 8.34 10.39 12.72 23.05 17.8 35.17 1.36 3.24 2.41 6.6 3.23 10.02-2.53 1.19-5.33 1.64-8.06 2.07-9.81-18.65-19.88-37.47-33.8-53.43-13.14-12.34-29.78-19.87-46.33-26.45 0.02-1.91-0.09-3.84 0.27-5.72z"/>
<path fill="#0f7c00" d="m228.7 182.33c-4.25-3.25-4.08-9.47-1.58-13.73 3.76 2.29 7.38 4.83 11.72 5.75 6.74 6.26 12.92 13.24 18.36 20.67-2.05 1.2-4.65 3.13-6.91 0.94-7.26-4.43-14.67-8.69-21.59-13.63z"/>
<path opacity=".98" fill="#036600" d="m115.51 170.89c0.82-2.04 2.83 0.27 3.89 0.88 0.14 0.37 0.42 1.1 0.56 1.47l-0.36 0.68c-3.2 3.14-4.7 8.14-9.45 9.36 3.93-2.93 5.42-7.6 5.36-12.39z"/>
<path fill="#38a000" d="m134.41 190.22c7.79-9.66 19.76-19.16 32.85-17.38-12.34 9.56-20.56 22.91-28.17 36.28-2.25 3.05-5.04 5.74-6.92 9.05-1.32 2.29 0.09 5.92-2.79 7.2-3.5 1.94-5.33 5.64-7.8 8.63-0.37-0.16-1.12-0.49-1.5-0.65-1.57-9.65 4.35-17.67 8.96-25.4 2.05-2.82 0.52-7.29 4.02-9.09 4-1.86-1.47-6.11 1.35-8.64m15.83-7.09c-2.67 0.03-3.44 5.47-0.41 4.8 3.01 0.6 2.82-5.43 0.41-4.8z"/>
<path fill="#006000" d="m164.73 181.6c5.9-5.51 13.61-10.27 22.02-9.64 1.81 4.25 4.13 8.27 6.01 12.49 2.24 5.26 1.19 11.25-0.82 16.41-0.39 1.23-0.68 2.5-0.97 3.76-1.64 2.74-3.35 5.42-5.01 8.15-0.32 0.49-0.98 1.48-1.31 1.98-1.23 0.2-3.7 0.62-4.93 0.82-1.58 11.44-8.38 21.11-12.26 31.8-1.03 3.36-4.29 4.75-7.63 4.93-0.77 3.36-0.25 7.18-2.23 10.19-2.06 2.49-4.94 4.16-7.14 6.53 2.95 5.64-1.53 11.13-3.49 16.3-5.79-4.26-10.06-10.19-14.45-15.79-1.52-1.9-2.56-4.15-2.86-6.58 3.44-22.23 9.05-44.74 21.32-63.87-0.72 5.99-3.29 11.54-4.44 17.42-1.41 5.39 2.71 10.12 6.71 12.99 5.47 1.51 12.19 0.29 15.57-4.7 3.43-4.47 2.12-10.61 4.48-15.52 3.42 0.1 7.31 0.71 10-1.98 5.95-7.28 6.14-18.8 0.44-26.31-5.13-6.12-13.16-1.67-19.01 0.62m-30.51 74.42c-2.18 2.74-2.69 9.29 1.76 10.12 2.03-2.88 3.42-10.59-1.76-10.12z"/>
<path fill="#003400" d="m186.75 171.96c4.33 0.44 8.38 2.19 12.34 3.88-4.51 9.05 1.72 18.13 0.61 27.42-2.38-1.5-4.79-4.19-7.76-2.4 2.01-5.16 3.06-11.15 0.82-16.41-1.88-4.22-4.2-8.24-6.01-12.49z"/>
<path fill="#005b00" d="m199.7 203.26c1.11-9.29-5.12-18.37-0.61-27.42 5.48 2.32 10.99 4.64 16.11 7.7-4.84 5.3-8.64 12.61-7.84 19.98 0.6 0.1 1.8 0.31 2.4 0.41-0.69 1.1-1.37 2.21-2.04 3.33-2.77-1.11-5.55-2.28-8.02-4z"/>
<path fill="#157f00" d="m164.73 181.6c5.85-2.29 13.88-6.74 19.01-0.62 5.7 7.51 5.51 19.03-0.44 26.31-2.69 2.69-6.58 2.08-10 1.98-2.36 4.91-1.05 11.05-4.48 15.52-3.38 4.99-10.1 6.21-15.57 4.7-4-2.87-8.12-7.6-6.71-12.99 1.15-5.88 3.72-11.43 4.44-17.42 3.49-6.58 8.34-12.39 13.75-17.48m-8.59 27.56c-0.17 1.23-0.24 2.46-0.21 3.7 3.8 1.76 4.46-6.02 0.21-3.7m-5.91 1.88c-2.61 2.67-4.35 7.6-1.8 10.84 7.24 3.25 8.78-11.19 1.8-10.84z"/>
<path fill="#6cc200" d="m150.24 183.13c2.41-0.63 2.6 5.4-0.41 4.8-3.03 0.67-2.26-4.77 0.41-4.8z"/>
<path fill="#157f00" d="m207.36 203.52c-0.8-7.37 3-14.68 7.84-19.98 10.12 5.51 20.93 10.81 28.48 19.79 4.97 6.09 10.32 11.97 14.27 18.81-0.69 2.97-1.1 6.22-3.03 8.69-5.25 3.21-11.95 3.73-17.88 2.36-3.74-4.68-8.08-8.83-11.94-13.4-2.22-2.65 0.45-5.86 0.84-8.69-2.66-0.01-4.02 2.56-5.94 3.97-5.34-1.57-5.37-7.6-7.13-11.89-1.05 0.22-2.08 0.47-3.11 0.75-0.6-0.1-1.8-0.31-2.4-0.41m15.1-6.3c-1.04 4.69 3.28 12.33 9.2 9.65 1.85-5.44-2.9-12.85-9.2-9.65m12.85 7.87c-3.32 2.47-0.2 7.09 2.88 8.11 1.34-3.1 2.27-9.74-2.88-8.11z"/>
<path fill="#006000" d="m11.12 212.33c4.26-8.88 10.17-16.83 16.56-24.27 2.17 3.85 6.48 6.07 10.78 6.51-6.5 7.42-11.52 15.95-16.68 24.31-2.85 0.52-5.73 0.84-8.62 1.1-0.93-2.47-1.71-5.03-2.04-7.65z"/>
<path fill="#97cc00" d="m222.46 197.22c6.3-3.2 11.05 4.21 9.2 9.65-5.92 2.68-10.24-4.96-9.2-9.65z"/>
<path fill="#1a0000" d="m191.94 200.86c2.97-1.79 5.38 0.9 7.76 2.4 2.47 1.72 5.25 2.89 8.02 4 3.22 4.72 1.05 10.67 3.24 15.7 5.21 13.43 9.94 27.06 15.2 40.46 0.34 2.63-1.4 5.19-0.41 7.82 3.74 13.57 7.79 27.06 11.2 40.71 0.48 18.37 6.46 36.02 8.58 54.18-1.01 21.95 5.48 43.99 1.97 65.81 2.18 8.84 1.45 18.02 2.55 27.01 1.17 9.15 1.68 18.52-0.29 27.61 0.82 14.97 3.34 30.01 2.77 45.07-1.42 0.15-2.85 0.2-4.26 0.35 1.25 15 1.97 30.5-1.16 45.26 0.32 4.19 0.63 8.36 1.03 12.55-1.79-5.04-1.64-10.37-2.35-15.58h-0.94c0.01 18.06 2.08 36.07 0.99 54.16-1.55 0.28-3.1 0.51-4.65 0.75-0.28-1.45-0.57-2.89-0.89-4.31-1.17 0.62-2.22 1.44-3.33 2.17-1.25 0.55-2.5 1.1-3.79 1.55-1.12 0.21-2.24 0.4-3.37 0.58 3.49-5.73 1.71-12.82 2.25-19.12-0.29-10.9 0.52-21.85-0.35-32.71-4.44 0.12-8.74-0.82-12.85-2.41-3.77-1.11-7.73-1.34-11.62-1.68 0.26-1.43 0.64-2.82 1.01-4.21 4.78-1.23 9.69-1.48 14.05 1.08 4.44 0.69 8.89 1.34 13.34 1.99 2.24-1.57 3.56-4.59 2.42-7.38 0.02-10.2 0.15-20.4-0.22-30.58-3.91-0.06-7.82-0.04-11.72 0.06-4.39-0.58-8.78-1.23-13.02-2.55 0.05-1.18 0.11-2.35 0.18-3.51 2.52-0.04 5.04-0.07 7.58-0.11 0.7 0.01 2.1 0.01 2.81 0.01l0.86 0.29c4.82 1.61 10.01 3.35 15.13 2.31 0.68-11.79 0.3-23.6 0.45-35.38 0.97-3.49-0.66-6.44-1.99-9.39 3.86-11.98-0.04-24.59 0.88-36.83-0.57-5.92 1.34-12.39-1.16-17.99-4.32 0.23-8.66 1.22-12.94 0.16-3.65-0.68-7.27-1.34-10.89-2.14-0.21-1.73-0.44-3.46-0.7-5.17 2.29-0.03 4.58-0.14 6.86-0.34 1.36-0.16 2.79-0.39 3.94 0.55 3.68 2.64 8.35 3.42 12.75 4.02 2.26-17.05 2.05-34.92-1.51-51.87-2.99-0.17-5.94-0.18-8.93-0.23-2.43-2.06-5.71-2.23-8.67-3 0.82-0.93 1.3-2.76 2.85-2.58 5.28-0.21 10.53 0.45 15.82 0.43 0.99-15.97-3.39-31.69-4.46-47.54-3.16 0.04-6.14 1.37-9.3 1.46-2.78 0.12-5.51 0.29-8.27 0.44-0.47-1.36-0.93-2.72-1.39-4.07 0.41-0.07 1.24-0.21 1.65-0.28 4.93-0.38 9.86 0.02 14.8-0.2 0.71-1.63 0.27-3.39-0.02-5.05-2.61-13.87-5.95-27.58-8.68-41.41-3.44-0.3-6.79 0.76-10.14 1.32-1.74 0.3-3.48 0.6-5.22 0.9-0.79-1.47-1.57-2.93-2.37-4.37 0.4-0.08 1.2-0.22 1.6-0.3 4.79-0.59 10.19 1.13 14.29-2.1-0.36-6.44-3.59-12.3-5.04-18.52-3.02-8.63-4.44-18.12-9.23-25.98-4.72 0.07-9.23 1.7-13.75 2.85l-0.8 0.22c-0.68-1.4-1.37-2.8-2.06-4.19 2.29-0.68 4.58-1.39 6.74-2.41 0.23-5.87-1.97-11.52-3.8-16.98 0.29-1.26 0.58-2.53 0.97-3.76z"/>
<path fill="#7c5600" d="m185.96 212.77c1.66-2.73 3.37-5.41 5.01-8.15 1.83 5.46 4.03 11.11 3.8 16.98-2.16 1.02-4.45 1.73-6.74 2.41l-0.36-0.69c3.82-3.23 0.64-7.42-1.71-10.55z"/>
<path fill="#7bc600" d="m235.31 205.09c5.15-1.63 4.22 5.01 2.88 8.11-3.08-1.02-6.2-5.64-2.88-8.11z"/>
<path fill="#4da900" d="m156.14 209.16c4.25-2.32 3.59 5.46-0.21 3.7-0.03-1.24 0.04-2.47 0.21-3.7z"/>
<path fill="#7aca00" d="m150.23 211.04c6.98-0.35 5.44 14.09-1.8 10.84-2.55-3.24-0.81-8.17 1.8-10.84z"/>
<path fill="#998000" d="m184.65 214.75c0.33-0.5 0.99-1.49 1.31-1.98 2.35 3.13 5.53 7.32 1.71 10.55-1.65-2.6-2.16-5.67-3.02-8.57z"/>
<path fill="#003100" d="m9.02 285.42c-2.17-23.87 7.41-46.53 17.87-67.41 4.89 7.6 5.61 17.87 12.14 24.33-2.29 5.07-7.04 8.19-10.4 12.38-4.08 11.53-10.39 22.51-19.61 30.7z"/>
<path fill="#003100" d="m13.16 219.98c2.89-0.26 5.77-0.58 8.62-1.1-10.5 19.66-17.3 41.87-16 64.32-2.02-5.12-4.26-10.31-3.75-15.97 0-7.44 0.02-14.88-0.06-22.31 0.47-7.37-0.92-15.48 2.72-22.26 2.45-1.79 5.57-2.16 8.47-2.68z"/>
<path fill="#005c00" d="m257.95 222.14c5.2 7.94 10.33 16 14.1 24.75-2.53 0.05-7.52-1.88-4.19 4.31 1.28 6.49 0.25 14.9-6.91 17.3-2.52-2.8-4.58-5.97-6.15-9.38-4.66-9.44-11.08-17.85-17.76-25.93 5.93 1.37 12.63 0.85 17.88-2.36 1.93-2.47 2.34-5.72 3.03-8.69z"/>
<path fill="#4a1f00" d="m190.89 227.98c4.52-1.15 9.03-2.78 13.75-2.85 4.79 7.86 6.21 17.35 9.23 25.98 1.45 6.22 4.68 12.08 5.04 18.52-4.1 3.23-9.5 1.51-14.29 2.1 1.12-0.78 2.25-1.58 3.24-2.53-0.1-13.24-5.72-25.51-9-38.13-0.68-3.91-4.92-3.06-7.97-3.09z"/>
<path fill="#805600" d="m190.09 228.2l0.8-0.22c3.05 0.03 7.29-0.82 7.97 3.09 3.28 12.62 8.9 24.89 9 38.13-0.99 0.95-2.12 1.75-3.24 2.53-0.4 0.08-1.2 0.22-1.6 0.3-1.65 0.26-3.29 0.57-4.95 0.68-0.28-15.21-5.49-29.66-7.98-44.51z"/>
<path opacity=".74" fill="#020" d="m0 244.99c0.49-0.02 1.48-0.05 1.97-0.07 0.08 7.43 0.06 14.87 0.06 22.31-0.51-0.51-1.52-1.53-2.03-2.04v-20.2z"/>
<path fill="#002800" d="m267.86 251.2c-3.33-6.19 1.66-4.26 4.19-4.31 7.74 17.78 14.68 35.9 20.83 54.26-4.82-4.56-8.23-10.42-13.34-14.68-2.98-2.64-6.08-5.26-8.41-8.51-1.72-2.44 0.54-5.26 0.92-7.8-3.46 0.39-5.99 4.75-9.55 3.4-0.64-1.65-1.06-3.37-1.55-5.06 7.16-2.4 8.19-10.81 6.91-17.3z"/>
<path fill="#002900" d="m287.41 249.82c6.26 12.47 5.19 26.68 6.76 40.16-3.01-5-3.6-11-5.73-16.35-2.78-7.35-5.53-14.72-9.09-21.74 2.73-0.43 5.53-0.88 8.06-2.07z"/>
<path fill="#6ac700" d="m134.22 256.02c5.18-0.47 3.79 7.24 1.76 10.12-4.45-0.83-3.94-7.38-1.76-10.12z"/>
<path fill="#003100" d="m127.67 291.73c1.27-9.55 1.19-19.2 1.99-28.78 0.3 2.43 1.34 4.68 2.86 6.58 4.39 5.6 8.66 11.53 14.45 15.79-0.59 2.82-1.74 5.46-3.48 7.77-4.31 10.69-8.72 21.43-13.63 31.9 0.21-11.19-3.68-22.09-2.19-33.26z"/>
<path fill="#003200" d="m113.81 270.29c3.76-2.66 8.01-4.5 11.98-6.81-2.76 11.89-1.76 24.14-1.84 36.24-0.56 7.9 2.89 15.41 1.98 23.31-6.4-14.8-8.55-30.91-13.48-46.17 0.22-2.23 1.04-4.35 1.36-6.57z"/>
<path fill="#4a1f00" d="m210.61 275.5c3.35-0.56 6.7-1.62 10.14-1.32 2.73 13.83 6.07 27.54 8.68 41.41 0.29 1.66 0.73 3.42 0.02 5.05-4.94 0.22-9.87-0.18-14.8 0.2 2.57-1.53 6.81-2.76 4.49-7.17-0.32-9.81-3.12-19.32-4.81-28.95-1.01-3.15-0.39-7.54-3.72-9.22z"/>
<path fill="#805600" d="m205.39 276.4c1.74-0.3 3.48-0.6 5.22-0.9 3.33 1.68 2.71 6.07 3.72 9.22 1.69 9.63 4.49 19.14 4.81 28.95 2.32 4.41-1.92 5.64-4.49 7.17-0.41 0.07-1.24 0.21-1.65 0.28-1.35 0.21-2.69 0.47-4.05 0.64 1.82-15.27-3.35-30.17-3.56-45.36z"/>
<path fill="#4a1f00" d="m222.66 324.75c3.16-0.09 6.14-1.42 9.3-1.46 1.07 15.85 5.45 31.57 4.46 47.54-5.29 0.02-10.54-0.64-15.82-0.43-1.55-0.18-2.03 1.65-2.85 2.58-1.03-0.16-2.05-0.31-3.06-0.46-0.71-1.74-2.49-3.77-1.25-5.66 3.04 2.93 8.23 2.56 12.08 1.67 2.4-14.24-1.95-28.28-1.77-42.49-0.27-0.32-0.82-0.97-1.09-1.29z"/>
<path fill="#815700" d="m214.39 325.19c2.76-0.15 5.49-0.32 8.27-0.44 0.27 0.32 0.82 0.97 1.09 1.29-0.18 14.21 4.17 28.25 1.77 42.49-3.85 0.89-9.04 1.26-12.08-1.67 0.78-1.63 1.55-3.32 1.6-5.15 0.53-12.19-0.59-24.35-0.65-36.52z"/>
<path fill="#7d5300" d="m214.69 372.52c1.01 0.15 2.03 0.3 3.06 0.46 2.96 0.77 6.24 0.94 8.67 3-0.95 15.42-0.04 30.89-0.44 46.32-0.47 0.44-1.4 1.32-1.87 1.76-0.31-1.4 0.41-4.17-1.93-3.73-1.64-0.27-1.26 2.23-2.01 3.18-2.28 0.2-4.57 0.31-6.86 0.34-1.36-0.34-2.72-0.66-4.05-1.08 0.29-6.85 4.1-13.08 3.52-20.03 0.04-10.11 1.83-20.13 1.91-30.22z"/>
<path fill="#491e00" d="m226.42 375.98c2.99 0.05 5.94 0.06 8.93 0.23 3.56 16.95 3.77 34.82 1.51 51.87-4.4-0.6-9.07-1.38-12.75-4.02 0.47-0.44 1.4-1.32 1.87-1.76 0.4-15.43-0.51-30.9 0.44-46.32z"/>
<path opacity=".84" fill="#5b3800" d="m220.17 423.51c0.75-0.95 0.37-3.45 2.01-3.18 2.34-0.44 1.62 2.33 1.93 3.73-1.15-0.94-2.58-0.71-3.94-0.55z"/>
<path fill="#7d5300" d="m214.01 429.02c3.62 0.8 7.24 1.46 10.89 2.14 2.99 16.21 3.05 33.06 0.84 49.36-0.4 0.1-1.19 0.31-1.59 0.41-0.32-1.36 0.31-4.05-1.96-3.61-1.58-0.22-1.33 2.16-2.08 3.08-2.28 0.14-4.54 0.28-6.8 0.41-2.14-0.45-4.3-0.87-6.3-1.76 6.93-15.77 5.18-33.34 7-50.03z"/>
<path fill="#4a1f00" d="m224.9 431.16c4.28 1.06 8.62 0.07 12.94-0.16 2.5 5.6 0.59 12.07 1.16 17.99-0.92 12.24 2.98 24.85-0.88 36.83 1.33 2.95 2.96 5.9 1.99 9.39-0.15 11.78 0.23 23.59-0.45 35.38-5.12 1.04-10.31-0.7-15.13-2.31 5.53-13.01 3.46-27.86 1.94-41.52 3.24 0.05 6.74 0.99 9.83-0.45-3.7-2.55-8.4-2.91-12.15-5.38 0.4-0.1 1.19-0.31 1.59-0.41 2.21-16.3 2.15-33.15-0.84-49.36z"/>
<path opacity=".84" fill="#593600" d="m220.11 480.4c0.75-0.92 0.5-3.3 2.08-3.08 2.27-0.44 1.64 2.25 1.96 3.61-1.32-0.37-2.68-0.51-4.04-0.53z"/>
<path fill="#1d0100" d="m220.11 480.4c1.36 0.02 2.72 0.16 4.04 0.53 3.75 2.47 8.45 2.83 12.15 5.38-3.09 1.44-6.59 0.5-9.83 0.45-4.2-0.92-8.42-1.81-12.65-2.59l-0.51-3.36c2.26-0.13 4.52-0.27 6.8-0.41z"/>
<path fill="#7d5300" d="m213.82 484.17c4.23 0.78 8.45 1.67 12.65 2.59 1.52 13.66 3.59 28.51-1.94 41.52l-0.86-0.29c2.18-3.77-3.65-3.78-2.81-0.01-2.54 0.04-5.06 0.07-7.58 0.11-2.35-0.25-4.69-0.5-7.02-0.74 5.85-13.62 6.97-28.53 7.56-43.18z"/>
<path opacity=".7" fill="#432700" d="m220.86 527.98c-0.84-3.77 4.99-3.76 2.81 0.01-0.71 0-2.11 0-2.81-0.01z"/>
<path fill="#7d5300" d="m213.1 531.6c4.24 1.32 8.63 1.97 13.02 2.55-0.75 11.87 2.01 24.91-3.82 35.91-4.36-2.56-9.27-2.31-14.05-1.08-1.43-0.62-2.88-1.24-4.24-2 6.27-10.73 7.26-23.36 9.09-35.38z"/>
<path fill="#4a1f00" d="m226.12 534.15c3.9-0.1 7.81-0.12 11.72-0.06 0.37 10.18 0.24 20.38 0.22 30.58 1.14 2.79-0.18 5.81-2.42 7.38-4.45-0.65-8.9-1.3-13.34-1.99 5.83-11 3.07-24.04 3.82-35.91z"/>
<path fill="#7d5300" d="m207.24 573.19c3.89 0.34 7.85 0.57 11.62 1.68 1.02 0.78 2.11 1.52 2.92 2.56-0.66 14.99 0.08 30.2-3.36 44.92-0.41 2.69-3.47 2.63-5.55 3.04-5.28-0.94-10.55-2-15.77-3.19 7.36-15.23 8.97-32.36 10.14-49.01z"/>
<path fill="#805500" d="m244.85 574.21h0.94c0.71 5.21 0.56 10.54 2.35 15.58 1.98 13.53 1.32 27.7-0.18 41.21h-0.97c-0.29-0.66-0.87-1.97-1.15-2.63 1.09-18.09-0.98-36.1-0.99-54.16z"/>
<path fill="#491e00" d="m218.86 574.87c4.11 1.59 8.41 2.53 12.85 2.41 0.87 10.86 0.06 21.81 0.35 32.71-0.54 6.3 1.24 13.39-2.25 19.12l-0.83 0.17c-3-0.37-2.78-3.86-4.86-5.31-3.22 2.83-7.21 3.26-11.25 1.42 2.08-0.41 5.14-0.35 5.55-3.04 3.44-14.72 2.7-29.93 3.36-44.92-0.81-1.04-1.9-1.78-2.92-2.56z"/>
<path opacity=".76" fill="#4f2f00" d="m233.18 628.53c1.29-0.45 2.54-1 3.79-1.55-0.25 1.34-0.53 2.68-0.83 4.02h-2.55c-0.1-0.62-0.31-1.85-0.41-2.47z"/>
<path opacity=".75" fill="#210800" d="m228.98 629.28l0.83-0.17c1.13-0.18 2.25-0.37 3.37-0.58 0.1 0.62 0.31 1.85 0.41 2.47h-2.62c-0.5-0.43-1.49-1.29-1.99-1.72z"/>
<path opacity=".75" fill="#160100" d="m241.19 629.12c1.55-0.24 3.1-0.47 4.65-0.75 0.28 0.66 0.86 1.97 1.15 2.63h-6.09c0.07-0.47 0.22-1.41 0.29-1.88z"/>
</svg>
